<svg viewBox="0 0 48 48" xmlns="http://www.w3.org/2000/svg">
  <path
    d="M42.4615 24.2121C42.4615 22.9399 42.3383 21.6267 42.1332 20.3955H24.3635V27.6593H34.541C34.1306 29.9985 32.7764 32.0504 30.7655 33.3637L36.8392 38.0831C40.4095 34.759 42.4615 29.9164 42.4615 24.2121Z"
    fill="#4280EF" />
  <path
    d="M24.3654 42.5966C29.4541 42.5966 33.7221 40.914 36.8411 38.0413L30.7674 33.3629C29.0848 34.512 26.9097 35.1686 24.3654 35.1686C19.4407 35.1686 15.2959 31.8445 13.7774 27.4124L7.53959 32.2139C10.7406 38.5748 17.2247 42.5966 24.3654 42.5966Z"
    fill="#34A353" />
  <path
    d="M13.777 27.3712C12.9972 25.032 12.9972 22.4876 13.777 20.1484L7.53913 15.3059C4.87163 20.6409 4.87163 26.9198 7.53913 32.2138L13.777 27.3712Z"
    fill="#F6B704" />
  <path
    d="M24.3654 12.3928C27.0329 12.3518 29.6593 13.3777 31.5881 15.2245L36.9642 9.80739C33.558 6.60639 29.0437 4.88277 24.3654 4.92381C17.2247 4.92381 10.7406 8.94558 7.53959 15.3065L13.7774 20.1491C15.2959 15.6759 19.4407 12.3928 24.3654 12.3928Z"
    fill="#E54335" />
</svg>