<svg viewBox="0 0 1024 1024" version="1.1" xmlns="http://www.w3.org/2000/svg">
  <path d="M440.888889 241.777778C432.355556 201.955556 395.377778 170.666667 349.866667 170.666667S270.222222 201.955556 261.688889 241.777778H170.666667V284.444444h91.022222c8.533333 39.822222 45.511111 71.111111 91.022222 71.111112s79.644444-31.288889 91.022222-71.111112H853.333333V241.777778H440.888889zM349.866667 312.888889c-28.444444 0-51.2-22.755556-51.2-51.2s22.755556-51.2 51.2-51.2 51.2 22.755556 51.2 51.2-22.755556 51.2-51.2 51.2z m321.422222 105.244444c-42.666667 0-79.644444 31.288889-91.022222 71.111111H170.666667v42.666667h412.444444c8.533333 39.822222 45.511111 71.111111 88.177778 71.111111s79.644444-31.288889 88.177778-71.111111H853.333333v-42.666667h-91.022222c-11.377778-39.822222-45.511111-71.111111-91.022222-71.111111z m0 142.222223c-28.444444 0-51.2-22.755556-51.2-51.2s22.755556-51.2 51.2-51.2 51.2 22.755556 51.2 51.2-22.755556 51.2-51.2 51.2zM261.688889 739.555556c8.533333-39.822222 45.511111-71.111111 88.177778-71.111112 45.511111 0 79.644444 31.288889 91.022222 71.111112H853.333333v42.666666H443.733333c-11.377778 39.822222-45.511111 71.111111-91.022222 71.111111s-82.488889-31.288889-91.022222-71.111111H170.666667V739.555556h91.022222z m36.977778 19.911111c0 28.444444 22.755556 51.2 51.2 51.2s51.2-22.755556 51.2-51.2-22.755556-51.2-51.2-51.2-51.2 22.755556-51.2 51.2z">
  </path>
</svg>