<svg viewBox="0 0 1024 1024" version="1.1" xmlns="http://www.w3.org/2000/svg">
  <path d="M839.111111 241.777778c-39.822222-39.822222-91.022222-59.733333-145.066667-59.733334s-105.244444 19.911111-145.066666 59.733334L512 278.755556l-36.977778-36.977778c-39.822222-39.822222-91.022222-59.733333-145.066666-59.733334s-105.244444 19.911111-145.066667 59.733334c-79.644444 79.644444-79.644444 210.488889 0 290.133333L221.866667 568.888889 512 856.177778l327.111111-327.111111c79.644444-79.644444 79.644444-207.644444 0-287.288889z m-31.288889 258.844444L512 796.444444l-258.844444-258.844444-36.977778-36.977778c-31.288889-31.288889-48.355556-71.111111-48.355556-113.777778s17.066667-82.488889 48.355556-113.777777 71.111111-48.355556 113.777778-48.355556 82.488889 17.066667 113.777777 48.355556l36.977778 36.977777L512 341.333333l31.288889-31.288889 36.977778-36.977777c31.288889-31.288889 71.111111-48.355556 113.777777-48.355556s82.488889 17.066667 113.777778 48.355556 48.355556 71.111111 48.355556 113.777777-17.066667 82.488889-48.355556 113.777778z">
  </path>
</svg>