<svg viewBox="0 0 1024 1024" version="1.1" xmlns="http://www.w3.org/2000/svg">
  <path d="M512 145.066667c159.288889 0 287.288889 128 287.288889 287.288889v5.688888c0 210.488889-287.288889 432.355556-287.288889 432.355556S224.711111 648.533333 224.711111 440.888889v-8.533333C224.711111 273.066667 352.711111 145.066667 512 145.066667z m244.622222 295.822222V432.355556c0-133.688889-110.933333-244.622222-244.622222-244.622223-133.688889 0-244.622222 108.088889-244.622222 241.777778v11.377778c0 73.955556 45.511111 164.977778 130.844444 264.533333 40.448 45.824 83.456 83.996444 109.624889 107.235556l4.152889 3.697778c28.444444-22.755556 71.111111-62.577778 113.777778-110.933334 85.333333-99.555556 130.844444-190.577778 130.844444-264.533333z m-341.333333-19.911111c0-54.044444 42.666667-96.711111 96.711111-96.711111s96.711111 42.666667 96.711111 96.711111-42.666667 96.711111-96.711111 96.711111-96.711111-42.666667-96.711111-96.711111z m42.666667 2.844444c0 28.444444 22.755556 54.044444 54.044444 54.044445 31.288889 0 54.044444-25.6 54.044444-54.044445 0-28.444444-22.755556-54.044444-54.044444-54.044444-28.444444 0-54.044444 22.755556-54.044444 54.044444z" >
  </path>
</svg>