<svg viewBox="0 0 48 48" fill="none" xmlns="http://www.w3.org/2000/svg">
  <g clip-path="url(#clip0_2182_6258)">
    <rect width="48" height="48" rx="24" fill="white" />
    <path
      d="M48 8.75362V39.3214C47.9893 44.1215 44.0572 48.0106 39.2465 48H8.67867C3.87855 47.9893 -0.010669 44.0465 2.19883e-05 39.2464V8.67856C0.010822 3.87865 3.9536 -0.0105603 8.75362 2.15424e-05H39.3216C44.1214 0.0108216 48.0108 3.94291 48 8.75362Z"
      fill="#06C755" />
    <path
      d="M41.1941 22.1976C41.1941 14.5903 33.5655 8.40015 24.1971 8.40015C14.8284 8.40015 7.20012 14.5903 7.20012 22.1976C7.20012 29.0129 13.2445 34.7239 21.4144 35.8077C23.405 36.2348 23.1757 36.9645 22.7276 39.6425C22.6546 40.0698 22.3837 41.3205 24.197 40.5599C26.0102 39.799 33.9824 34.797 37.5568 30.691C40.0163 27.9812 41.1941 25.2407 41.1941 22.1976Z"
      fill="#FEFEFE" />
    <path
      d="M28.9376 18.5286H27.7498C27.5619 18.5286 27.4161 18.6745 27.4161 18.8621V23.2598L24.0188 18.6745C23.9666 18.5807 23.8521 18.5286 23.7479 18.5286H22.5704C22.3828 18.5286 22.2369 18.6745 22.2369 18.8621V26.2716C22.2369 26.4591 22.3828 26.6052 22.5704 26.6052H23.7582C23.9459 26.6052 24.0917 26.4591 24.0917 26.2716V21.8738L27.489 26.4591C27.5413 26.5321 27.6456 26.5945 27.7601 26.5945H28.9481C29.1357 26.5945 29.2816 26.4486 29.2816 26.2609V18.8517C29.2815 18.6745 29.1253 18.5181 28.9376 18.5286Z"
      fill="#06C755" />
    <path
      d="M20.7354 18.5193H19.5476C19.3599 18.5193 19.2141 18.6652 19.2141 18.8529V26.2621C19.2141 26.4498 19.36 26.5957 19.5476 26.5957H20.7354C20.9232 26.5957 21.0689 26.4498 21.0689 26.2621V18.8529C21.0689 18.6757 20.9232 18.5193 20.7354 18.5193Z"
      fill="#06C755" />
    <path
      d="M17.8724 24.7305H14.6315V18.8529C14.6315 18.6652 14.4856 18.5193 14.2979 18.5193H13.1099C12.9222 18.5193 12.7764 18.6652 12.7764 18.8529V26.2621C12.7764 26.3561 12.8077 26.429 12.8701 26.4913C12.9327 26.5436 13.0056 26.5854 13.0994 26.5854H17.8621C18.0496 26.5854 18.1955 26.4395 18.1955 26.2518V25.0637C18.1955 24.8865 18.0495 24.7305 17.8724 24.7305Z"
      fill="#06C755" />
    <path
      d="M35.5346 20.3742C35.7224 20.3742 35.8681 20.2285 35.8681 20.0409V18.8529C35.8577 18.6757 35.7119 18.5193 35.5346 18.5193H30.7721C30.595 18.5193 30.4387 18.6652 30.4387 18.8529V26.2621C30.4387 26.4395 30.5845 26.5957 30.7721 26.5957H35.5346C35.7224 26.5957 35.8681 26.4498 35.8681 26.2621V25.0743C35.8681 24.8865 35.7224 24.7407 35.5346 24.7407H32.2938V23.4902H35.5346C35.7224 23.4902 35.8681 23.3443 35.8681 23.1567V21.9582C35.8681 21.7707 35.7224 21.6247 35.5346 21.6247H32.2938V20.3741H35.5346V20.3742Z"
      fill="#06C755" />
  </g>
  <defs>
    <clipPath id="clip0_2182_6258">
      <rect width="48" height="48" rx="24" fill="white" />
    </clipPath>
  </defs>
</svg>