<svg viewBox="0 0 1024 1024" version="1.1" xmlns="http://www.w3.org/2000/svg">
  <path d="M836.266667 503.466667c-59.733333-119.466667-184.888889-196.266667-318.577778-196.266667-133.688889 0-256 76.8-318.577778 196.266667 59.733333 119.466667 184.888889 196.266667 318.577778 196.266666 133.688889 0 258.844444-76.8 318.577778-196.266666z m-685.511111 0c62.577778-142.222222 204.8-238.933333 366.933333-238.933334 164.977778 0 304.355556 96.711111 366.933333 238.933334-62.577778 142.222222-201.955556 238.933333-366.933333 238.933333-164.977778 0-304.355556-99.555556-366.933333-238.933333z m216.177777 0c0 82.488889 68.266667 150.755556 150.755556 150.755555 85.333333 0 150.755556-68.266667 150.755555-150.755555s-68.266667-150.755556-150.755555-150.755556-150.755556 68.266667-150.755556 150.755556z m42.666667 0c0-59.733333 48.355556-108.088889 108.088889-108.088889 59.733333 0 108.088889 48.355556 108.088889 108.088889 0 59.733333-48.355556 108.088889-108.088889 108.088889-59.733333 0-108.088889-48.355556-108.088889-108.088889z">
  </path>
</svg>