<svg xmlns="http://www.w3.org/2000/svg" viewBox="0 0 60 60">
<rect width="60" height="60" fill="white"/>
<path d="M13.2148 53.9375C13.2148 54.9818 13.6297 55.9833 14.3681 56.7217C15.1065 57.4602 16.1081 57.875 17.1523 57.875C18.1966 57.875 19.1982 57.4602 19.9366 56.7217C20.675 55.9833 21.0898 54.9818 21.0898 53.9375C21.0898 52.8932 20.675 51.8917 19.9366 51.1533C19.1982 50.4148 18.1966 50 17.1523 50C16.1081 50 15.1065 50.4148 14.3681 51.1533C13.6297 51.8917 13.2148 52.8932 13.2148 53.9375Z" />
<path d="M47.7783 53.9375C47.7783 54.9818 48.1932 55.9833 48.9316 56.7217C49.67 57.4602 50.6715 57.875 51.7158 57.875C52.7601 57.875 53.7616 57.4602 54.5001 56.7217C55.2385 55.9833 55.6533 54.9818 55.6533 53.9375C55.6533 52.8932 55.2385 51.8917 54.5001 51.1533C53.7616 50.4148 52.7601 50 51.7158 50C50.6715 50 49.67 50.4148 48.9316 51.1533C48.1932 51.8917 47.7783 52.8932 47.7783 53.9375Z" />
<path d="M11.4588 7.35395L11.4588 7.35394L11.4582 7.35061C10.8525 3.9181 7.63972 1.3125 4.21582 1.3125H2.90332C2.3657 1.3125 1.86994 1.57627 1.51852 1.9277C1.16709 2.27912 0.90332 2.77488 0.90332 3.3125C0.90332 3.85012 1.16709 4.34588 1.51852 4.6973C1.86994 5.04873 2.3657 5.3125 2.90332 5.3125H4.21582C4.91374 5.3125 5.64579 5.62563 6.25654 6.15214C6.86322 6.67515 7.31185 7.3765 7.47506 8.09657L13.0978 41.2711L13.0984 41.2744C13.7042 44.7069 16.9169 47.3125 20.3408 47.3125H51.8408C52.3784 47.3125 52.8742 47.0487 53.2256 46.6973C53.577 46.3459 53.8408 45.8501 53.8408 45.3125C53.8408 44.3282 53.0945 43.3125 51.8408 43.3125H20.3408C19.6429 43.3125 18.9109 42.9994 18.3001 42.4729C17.6934 41.9499 17.2448 41.2485 17.0816 40.5284L11.4588 7.35395Z" />
<path fill-rule="evenodd" clip-rule="evenodd" d="M8.81176 12.3045C8.50416 10.5819 9.82858 9 11.5784 9H53.2413C55.0581 9 56.3975 10.6979 55.9745 12.4647L51.4201 31.4903C50.51 35.292 47.2231 38.0529 43.3214 38.293L13.7772 40.1111L8.81176 12.3045Z" />
<path fill-rule="evenodd" clip-rule="evenodd" d="M42.2447 18.5483C42.424 17.271 43.605 16.3811 44.8822 16.5608V16.5608C46.1588 16.7405 47.0482 17.9207 46.869 19.1974L45.3509 30.013C45.1716 31.2903 43.9906 32.1802 42.7134 32.0005V32.0005C41.4368 31.8208 40.5474 30.6405 40.7266 29.3639L42.2447 18.5483Z" fill="white"/>
<rect x="29.79" y="16.4854" width="4.66952" height="15.5915" rx="2.33476" fill="white"/>
<path fill-rule="evenodd" clip-rule="evenodd" d="M17.2914 19.252C17.09 17.9787 17.9586 16.783 19.2319 16.5812V16.5812C20.5058 16.3792 21.7021 17.2484 21.9037 18.5223L23.6102 29.3098C23.8117 30.5831 22.943 31.7787 21.6698 31.9806V31.9806C20.3959 32.1826 19.1995 31.3134 18.998 30.0394L17.2914 19.252Z" fill="white"/>
</svg>