<svg viewBox="0 0 1024 1024" xmlns="http://www.w3.org/2000/svg">
  <path d="M300.516 765.156a59.733 59.733 0 1 1 0 119.438 59.733 59.733 0 0 1 0-119.467zm312.888 0a59.733 59.733 0 1 1 0 119.438 59.733 59.733 0 0 1 0-119.467zM894.862 129.45a28.444 28.444 0 0 1-12.743 38.172l-100.92 50.46-74.184 423.055a85.447 85.447 0 0 1-83.94 69.973H289.622a85.732 85.732 0 0 1-83.427-67.47l-62.322-314.169a85.106 85.106 0 0 1 17.75-70.77 85.049 85.049 0 0 1 65.934-31.146h328.931a28.444 28.444 0 1 1 0 56.888H227.556a28.53 28.53 0 0 0-27.933 33.992l62.237 313.742c2.702 12.6 14.42 22.044 27.733 22.044h333.454a28.388 28.388 0 0 0 27.933-23.154l74.126-422.77a57.173 57.173 0 0 1 30.634-41.073l100.921-50.46a28.53 28.53 0 0 1 38.173 12.743z"/>
</svg>