<svg xmlns="http://www.w3.org/2000/svg" viewBox="0 0 32 32">
<g clip-path="url(#clip0_1592_295139)">
<path fill-rule="evenodd" clip-rule="evenodd" d="M7.48291 9.3692L6.84596 15.7449L6.84184 15.7444C6.84026 15.7441 6.83875 15.7439 6.83724 15.7439H3.17872C2.64194 15.7439 2.20703 16.171 2.20703 16.698C2.20703 17.2249 2.64194 17.6521 3.17872 17.6521H6.65541L6.26304 21.578C6.15989 22.6104 6.92848 23.4472 7.98013 23.4472H8.22959C8.22874 23.2789 8.23661 23.1083 8.25384 22.9357C8.52648 20.2069 11.0005 17.9951 13.7801 17.9951C16.5592 17.9951 18.5913 20.2069 18.3184 22.9357C18.3012 23.1083 18.275 23.2789 18.2406 23.4472H19.7308H20.1549C20.476 21.1767 22.5565 19.3628 24.8927 19.3628C27.2287 19.3628 28.9468 21.1767 28.8141 23.4472H29.393C30.4063 23.4472 30.4832 22.6678 30.58 21.6862L30.5901 21.584L30.9821 17.6592C31.0437 17.0441 30.9465 16.4389 30.6998 15.8994L29.4506 11.2261C29.0194 10.2834 28.0711 9.6974 26.9764 9.6974H24.4848L24.5176 9.3692C24.6205 8.33679 23.8517 7.5 22.8003 7.5H9.57367C8.52223 7.5 7.58627 8.33679 7.48291 9.3692ZM12.9291 26.5003C14.9346 26.5003 16.7199 24.9044 16.9164 22.9358C17.1132 20.9672 15.6472 19.3711 13.6418 19.3711C11.6363 19.3711 9.85135 20.9672 9.65441 22.9358C9.45769 24.9044 10.9238 26.5003 12.9291 26.5003ZM27.389 23.6222C27.2307 25.2075 25.7933 26.4925 24.1787 26.4925C22.5637 26.4925 21.3832 25.2075 21.5416 23.6222C21.7 22.037 23.1375 20.752 24.7523 20.752C26.3671 20.752 27.5476 22.037 27.389 23.6222ZM1 20.3133C1 20.8405 1.43512 21.2676 1.9719 21.2676H4.74314C5.2797 21.2676 5.71504 20.8405 5.71504 20.3133C5.71504 19.7865 5.2797 19.3594 4.74314 19.3594H1.9719C1.43512 19.3594 1 19.7865 1 20.3133ZM13.1571 11.2539L13.0282 12.541H10.7316L10.617 13.6872H12.847L12.7182 14.9743H10.4883L10.234 17.5206H8.68359L9.30991 11.2539H13.1571ZM16.189 12.5411H15.3756L15.2227 14.0725H16.0361C16.2467 14.0725 16.4242 14.0036 16.5689 13.8656C16.713 13.7274 16.7973 13.543 16.8202 13.3117C16.8443 13.0743 16.7973 12.8862 16.6805 12.7482C16.5633 12.6102 16.3998 12.5411 16.189 12.5411ZM15.0926 15.3596L14.8765 17.5205H13.3262L13.9527 11.254H16.5558C16.9639 11.254 17.3125 11.3433 17.6008 11.5218C17.889 11.7001 18.1021 11.9444 18.2405 12.2546C18.3784 12.5647 18.4285 12.9106 18.3905 13.2927C18.342 13.7752 18.2027 14.165 17.9719 14.4625C17.7414 14.76 17.4762 14.9713 17.1766 15.0965L18.0155 17.5205H16.2931L15.6668 15.3596H15.0926ZM23.1532 12.541L23.2821 11.2539H19.4349L18.8086 17.5206H22.6558L22.7845 16.2335H20.4876L20.6133 14.9743H22.8432L22.972 13.6872H20.742L20.8566 12.541H23.1532ZM27.9813 11.2539L27.8524 12.541H25.5558L25.4412 13.6872H27.6712L27.5424 14.9743H25.3125L25.1868 16.2335H27.4837L27.355 17.5206H23.5078L24.1341 11.2539H27.9813Z" fill="#111111"/>
</g>
<defs>
<clipPath id="clip0_1592_295139">
<rect width="30" height="29.0909" fill="white" transform="translate(1)"/>
</clipPath>
</defs>
</svg>