<svg viewBox="0 0 30 30"  xmlns="http://www.w3.org/2000/svg">
  <path d="M3.03711 8.93701C5.54961 12.8928 9.96628 15.5203 15.0004 15.5203C20.0346 15.5203 24.4521 12.8928 26.9646 8.93701" stroke="currentStroke" stroke-width="2" stroke-linecap="round" stroke-linejoin="round" fill="none"/>
  <path d="M24.9999 18.674C24.6008 18.904 24.0916 18.7673 23.8616 18.3698L21.7783 14.7615C21.5474 14.3623 21.6841 13.8532 22.0833 13.6223C22.4824 13.3923 22.9916 13.529 23.2216 13.9282L25.3049 17.5365C25.5358 17.934 25.3991 18.4448 24.9999 18.674Z"  />
  <path d="M18.4735 21.0503C18.0201 21.1303 17.5885 20.827 17.5076 20.3736L16.7843 16.2711C16.7043 15.8178 17.0068 15.3853 17.4601 15.3053C17.9135 15.2253 18.346 15.5278 18.4251 15.9811L19.1493 20.0845C19.2285 20.5378 18.9268 20.9695 18.4735 21.0503Z"  />
  <path d="M4.99927 18.674C4.6001 18.4448 4.46343 17.934 4.69427 17.5365L6.7776 13.9282C7.0076 13.529 7.51677 13.3923 7.91593 13.6223C8.3151 13.8532 8.45177 14.3623 8.22093 14.7615L6.1376 18.3698C5.9076 18.7673 5.39843 18.904 4.99927 18.674Z" />
  <path d="M11.5263 21.0503C11.073 20.9695 10.7713 20.5378 10.8505 20.0845L11.5747 15.9811C11.6538 15.5278 12.0863 15.2253 12.5397 15.3053C12.993 15.3853 13.2955 15.8178 13.2155 16.2711L12.4922 20.3736C12.4113 20.827 11.9797 21.1303 11.5263 21.0503Z"  />
</svg>