<svg viewBox="0 0 1024 1024" version="1.1" xmlns="http://www.w3.org/2000/svg">
  <path d="M190.691556 805.12l603.022222-603.022222 30.179555 30.151111-603.022222 603.022222-30.179555-30.151111zM193.422222 512c59.733333-119.466667 184.888889-196.266667 318.577778-196.266667 31.288889 0 62.577778 5.688889 93.866667 11.377778l34.133333-34.133333c-39.822222-14.222222-82.488889-19.911111-128-19.911111C349.866667 273.066667 207.644444 369.777778 145.066667 512c28.444444 59.733333 68.266667 113.777778 119.466666 153.6l31.288889-31.288889C256 603.022222 219.022222 560.355556 193.422222 512z m637.155556 0c-59.733333 119.466667-184.888889 196.266667-318.577778 196.266667-31.288889 0-62.577778-5.688889-93.866667-11.377778l-34.133333 34.133333c39.822222 14.222222 82.488889 19.911111 128 19.911111 162.133333 0 304.355556-96.711111 366.933333-238.933333-28.444444-59.733333-68.266667-113.777778-119.466666-153.6l-31.288889 31.288889c39.822222 31.288889 76.8 73.955556 102.4 122.311111zM369.777778 563.2c-5.688889-17.066667-8.533333-34.133333-8.533334-51.2 0-82.488889 68.266667-150.755556 145.066667-145.066667 19.911111 0 34.133333 2.844444 51.2 8.533334l-34.133333 34.133333c-2.844444-2.844444-8.533333-2.844444-14.222222-2.844444-59.733333 0-108.088889 48.355556-108.088889 108.088888 0 1.166222 0.455111 2.844444 1.052444 4.807112 0.796444 2.759111 1.763556 6.087111 1.763556 9.415111L369.777778 563.2zM662.755556 512c0-17.066667-2.844444-34.133333-8.533334-51.2l-34.133333 34.133333c0 3.328 0.967111 6.656 1.763555 9.415111 0.568889 1.962667 1.052444 3.640889 1.052445 4.807112 0 59.733333-48.355556 108.088889-108.088889 108.088888-5.688889 0-11.377778 0-14.222222-2.844444L460.8 654.222222c17.066667 5.688889 31.288889 8.533333 51.2 8.533334 82.488889 0 150.755556-68.266667 150.755556-150.755556z"></path>
</svg>