<svg viewBox="0 0 1024 1024" version="1.1" xmlns="http://www.w3.org/2000/svg">
  <path d="M572.586667 128.213333c-41.216 0-68.629333 20.501333-84.544 53.824a148.202667 148.202667 0 0 0-6.997334 17.578667l-2.453333 8-3.797333 13.632c-23.552 61.333333-50.389333 109.738667-77.888 144.341333l-3.690667 4.522667c-15.850667 19.157333-30.613333 32.042667-40.384 37.376l-1.194667 0.597333-99.690666 0.021334a73.322667 73.322667 0 0 0-73.386667 73.386666v328.32a73.322667 73.322667 0 0 0 73.386667 73.386667h480.426666l1.514667 0.106667 6.805333-0.106667c28.992 0 52.352-11.904 69.802667-31.274667 9.088-10.090667 15.018667-20.181333 18.389333-28.181333l1.152-2.901333a15.189333 15.189333 0 0 0 0.768-2.090667l1.024-3.712 1.962667-8.149333 4.074667-18.944 7.786666-38.634667 9.173334-47.189333 14.314666-75.306667 20.522667-110.08 5.333333-42.666667a84.288 84.288 0 0 0-73.749333-93.973333l-4.693333-0.384-4.714667-0.170667h-146.602667l1.664-7.146666c5.952-27.818667 8.554667-55.957333 8.533334-83.776 0-23.381333-1.770667-41.621333-3.733334-53.397334-11.84-68.693333-45.354667-107.008-99.114666-107.008z m217.834666 676.757334l0.128-0.256c-1.92 5.056-5.632 11.861333-11.754666 18.666666-8.938667 9.898667-19.882667 15.978667-33.834667 17.002667l-10.453333 0.234667-0.490667-0.021334L251.946667 840.533333c-17.024 0-30.72-13.696-30.72-30.72V481.493333c0-17.024 13.696-30.72 30.72-30.72l101.930666-0.085333-1.749333-0.213333 3.498667 0.298666h0.426666a21.333333 21.333333 0 0 0 7.36-1.301333c44.544-16.384 104.981333-92.416 151.658667-214.208l2.154667-7.402667 2.752-9.770666a118.4 118.4 0 0 1 6.570666-17.664c9.301333-19.498667 22.741333-29.546667 46.037334-29.546667 28.672 0 46.997333 19.733333 56.064 66.005333l1.258666 7.168 0.64 4.736 0.661334 6.464c0.981333 10.048 1.557333 21.290667 1.557333 33.408 0.042667 30.784-3.541333 61.930667-11.733333 91.861334l-2.901334 9.941333c-4.074667 12.245333-0.746667 31.722667 21.226667 31.722667h171.733333l3.093334 0.128 2.965333 0.234666c21.930667 2.602667 38.314667 23.466667 35.498667 46.293334l-5.12 41.386666-20.309334 108.693334-18.922666 99.114666-10.026667 50.624-5.461333 25.962667-2.368 10.154667c-0.042667 0.128-0.042667 0.192-0.021334 0.192z"></path>
  <path d="M311.061333 436.266667a21.333333 21.333333 0 0 1 20.992 19.093333l0.106667 2.474667-4.266667 380.586666a21.333333 21.333333 0 0 1-42.56 2.026667l-0.106666-2.496 4.266666-380.586667a21.333333 21.333333 0 0 1 21.568-21.098666z"></path>
</svg>