<svg viewBox="0 0 1024 1024" xmlns="http://www.w3.org/2000/svg">
  <path d="M881.778 568.889a28.444 28.444 0 0 1-28.445-28.445V256a28.444 28.444 0 0 0-28.444-28.444h-512a28.444 28.444 0 1 1 0-56.89h512c47.047 0 85.333 38.287 85.333 85.334v284.444a28.444 28.444 0 0 1-28.444 28.445" />
  <path d="M369.778 853.333a28.416 28.416 0 0 1-19.911-48.753l104.249-102.144a56.661 56.661 0 0 1 43.093-19.77H711.11a28.444 28.444 0 0 0 28.445-28.444V369.778a28.444 28.444 0 0 0-28.445-28.445h-512a28.444 28.444 0 0 0-28.444 28.445v284.444a28.444 28.444 0 0 0 28.444 28.445h113.78a28.444 28.444 0 1 1 0 56.889H199.11c-47.047 0-85.333-38.287-85.333-85.334V369.778c0-47.047 38.286-85.334 85.333-85.334h512c47.047 0 85.333 38.287 85.333 85.334v284.444c0 47.047-38.286 85.334-85.333 85.334h-213.9a24.064 24.064 0 0 1-2.276 2.531L389.69 845.198a28.33 28.33 0 0 1-19.911 8.135" />
  <path d="M355.556 512a42.667 42.667 0 1 1-85.334 0 42.667 42.667 0 0 1 85.334 0m142.222 0a42.667 42.667 0 1 1-85.334 0 42.667 42.667 0 0 1 85.334 0M640 512a42.667 42.667 0 1 1-85.333 0A42.667 42.667 0 0 1 640 512" />
</svg>