<svg viewBox="0 0 1024 1024" version="1.1" xmlns="http://www.w3.org/2000/svg">
  <path d="M515.23634517 94.51140779c-226.54419741 0-414.25224704 184.47170333-414.2522459 414.25224704 0 226.54419741 184.47170333 414.25224704 414.2522459 414.2522459 229.78054371 0 414.25224704-184.47170333 414.25224704-414.2522459-3.23634517-226.54419741-187.70804963-414.25224704-414.25224704-414.25224704z m0 776.7229622c-200.65343261 0-365.70706147-161.8172837-365.70706147-362.47071516 0-200.65343261 161.8172837-365.70706147 365.70706147-365.70706262 203.88977778 0 365.70706147 161.8172837 365.70706262 365.70706262-3.23634517 200.65343261-165.05363001 362.4707163-365.70706262 362.47071516z m9.7090378-546.94241962c-93.85402482 0-126.2174811 67.96325888-126.21748224 126.21748224H447.27308629c0-29.12711111 9.70903666-77.67229667 77.67229668-77.67229668 32.36345629 0 51.78153074 6.47269149 61.4905674 22.65441962 8.09086407 16.21409223 4.91924594 36.92670407 3.65707036 45.21174927a31.8456411 31.8456411 0 0 0-0.42072406 3.3334363c-8.93231445 17.83226482-20.5831589 24.75804445-34.95253333 33.26963371L550.83614777 479.63654371c-1.52108259 1.16508445-3.10689223 2.29780594-4.69270073 3.46288925-24.91986147 18.44716999-53.56152149 39.61287111-53.56152149 106.57286371h48.54518556c0-45.30883925 12.94538297-55.01787705 35.5998026-71.19960518 16.18172814-9.70903666 35.59980259-25.89076594 51.78153074-51.78153074 9.70903666-16.18172814 19.41807445-61.49056739-3.23634518-97.09037113-9.70903666-19.41807445-38.83614777-45.30883925-100.3267163-45.30883925z m-42.07249408 333.34360518c0-19.41807445 16.18172814-32.36345629 32.36345628-32.36345628s32.36345629 12.94538297 32.36345742 32.36345628-16.18172814 32.36345629-32.36345742 32.36345629c-19.41807445 0-32.36345629-12.94538297-32.36345628-32.36345629z">
  </path>
</svg>