<svg viewBox="0 0 1024 1024" version="1.1" xmlns="http://www.w3.org/2000/svg">
  <path d="M512 0c282.624 0 512 229.376 512 512s-229.376 512-512 512S0 794.624 0 512 229.376 0 512 0z m0 76.8A435.4048 435.4048 0 0 0 76.8 512c0 240.2304 194.9696 435.2 435.2 435.2s435.2-194.9696 435.2-435.2-194.9696-435.2-435.2-435.2z m-5.7344 625.2544c17.2032 0 31.9488 4.9152 43.4176 16.384 11.4688 10.6496 17.2032 24.576 17.2032 41.7792 0 17.2032-6.5536 31.1296-18.0224 42.5984-11.4688 10.6496-26.2144 16.384-42.5984 16.384-16.384 0-31.1296-5.7344-42.5984-17.2032a56.832 56.832 0 0 1-17.2032-41.7792c0-17.2032 5.7344-31.1296 17.2032-41.7792 11.4688-11.4688 26.2144-16.384 42.5984-16.384z m14.7456-479.232c52.4288 0 95.0272 13.9264 127.7952 43.4176 32.768 28.672 49.152 67.9936 49.152 117.1456 0 40.1408-10.6496 73.728-31.1296 99.9424-7.3728 9.0112-30.3104 30.3104-68.8128 63.8976a136.0384 136.0384 0 0 0-34.4064 42.5984c-9.0112 16.384-13.1072 34.4064-13.1072 54.0672v13.9264H462.848v-13.9264c0-30.3104 4.9152-56.5248 16.384-77.824 10.6496-22.9376 41.7792-56.5248 92.5696-101.5808l13.9264-15.5648c14.7456-18.8416 22.9376-38.5024 22.9376-59.8016 0-28.672-8.192-50.7904-23.7568-67.1744-16.384-16.384-40.1408-24.576-69.632-24.576-36.864 0-63.8976 11.4688-80.2816 35.2256-14.7456 19.6608-22.1184 47.5136-22.1184 83.5584h-86.016c0-59.8016 17.2032-106.496 51.6096-140.9024 34.4064-35.2256 81.92-52.4288 142.5408-52.4288z"></path>
</svg>