<svg viewBox="0 0 1024 1024" version="1.1" xmlns="http://www.w3.org/2000/svg">
  <path d="M217.259 274.645H782.42a20.437 20.437 0 0 0 20.224-20.65 20.437 20.437 0 0 0-20.224-20.651H217.26a20.437 20.437 0 0 0-20.224 20.65c0 11.393 9.045 20.651 20.224 20.651z m181.888 107.776v346.582c0 11.434 9.045 20.693 20.181 20.693a20.437 20.437 0 0 0 20.224-20.693V382.42a20.437 20.437 0 0 0-20.224-20.65 20.437 20.437 0 0 0-20.181 20.65z m161.706-1.493v348.075c0 11.434 9.003 20.693 20.182 20.693a20.437 20.437 0 0 0 20.224-20.693V380.928a20.437 20.437 0 0 0-20.224-20.65 20.437 20.437 0 0 0-20.224 20.65zM378.88 212.693h225.664a20.437 20.437 0 0 0 20.224-20.65 20.437 20.437 0 0 0-20.224-20.694H378.88a20.437 20.437 0 0 0-20.224 20.694c0 11.392 9.045 20.65 20.224 20.65z"></path>
  <path d="M702.293 274.645v519.51c0 9.642-7.68 17.493-17.066 17.493H315.136a17.323 17.323 0 0 1-17.067-17.493v-519.51a20.437 20.437 0 0 0-20.224-20.65 20.437 20.437 0 0 0-20.224 20.65v519.51c0 32.426 25.771 58.794 57.515 58.794h370.005c31.787 0 57.558-26.325 57.558-58.794v-519.51a20.437 20.437 0 0 0-20.224-20.65 20.437 20.437 0 0 0-20.224 20.65z"></path>
</svg>