<svg viewBox="0 0 1024 1024" version="1.1" xmlns="http://www.w3.org/2000/svg">
  <path d="M500.622222 139.377778h42.666667v113.777778h-42.666667v-113.777778z m270.222222 702.577778V540.444444c0-139.377778-110.933333-250.311111-250.311111-250.311111h-2.844444c-139.377778 0-250.311111 110.933333-250.311111 250.311111v304.355556H199.111111v42.666667h625.777778v-42.666667h-54.044445v-2.844444z m-42.666666-5.688889H310.044444V540.444444c0-113.777778 93.866667-207.644444 207.644445-207.644444h2.844444c113.777778 0 207.644444 93.866667 207.644445 207.644444v295.822223z m-227.555556-261.688889l85.333334-99.555556-34.133334-25.6-145.066666 167.822222h128l-91.022223 102.4 31.288889 28.444445 153.6-173.511111h-128zM790.926222 228.579556l-80.469333 80.440888 30.179555 30.179556 80.469334-80.440889-30.179556-30.179555z m-575.402666 28.103111l30.151111-30.179556 80.497777 80.440889-30.179555 30.151111-80.469333-80.412444z">
  </path>
</svg>