<svg viewBox="0 0 1024 1024" version="1.1" xmlns="http://www.w3.org/2000/svg">
  <path d="M748.088889 284.444444c62.577778 65.422222 102.4 156.444444 102.4 253.155556 0 93.866667-34.133333 179.2-93.866667 244.622222l25.6 45.511111-36.977778 22.755556L361.244444 193.422222 398.222222 170.666667l85.333334 145.066666 82.488888-76.8v213.333334l85.333334 147.911111c5.688889-19.911111 11.377778-39.822222 11.377778-62.577778 0-36.977778-11.377778-71.111111-31.288889-99.555556l28.444444-36.977777c28.444444 36.977778 45.511111 85.333333 45.511111 136.533333 0 39.822222-11.377778 76.8-28.444444 108.088889l56.888889 96.711111c45.511111-56.888889 73.955556-128 73.955555-204.8 0-82.488889-31.288889-159.288889-85.333333-219.022222l25.6-34.133334zM167.822222 708.266667v-341.333334h250.311111l147.911111 253.155556v216.177778L426.666667 708.266667H167.822222z"></path>
</svg>