<svg viewBox="0 0 1024 1024" version="1.1" xmlns="http://www.w3.org/2000/svg">
  <path d="M645.688889 230.4l51.2 79.644444H881.777778v497.777778H145.066667V310.044444h187.733333l51.2-79.644444h261.688889zM347.022222 546.133333c0 93.866667 76.8 167.822222 167.822222 167.822223s167.822222-73.955556 167.822223-167.822223c0-93.866667-76.8-167.822222-167.822223-167.822222-93.866667 0-167.822222 73.955556-167.822222 167.822222zM733.866667 426.666667c0 19.911111 17.066667 34.133333 34.133333 34.133333 19.911111 0 34.133333-14.222222 34.133333-34.133333s-14.222222-34.133333-34.133333-34.133334-34.133333 14.222222-34.133333 34.133334z m-344.177778 119.466666c0-68.266667 56.888889-125.155556 125.155555-125.155555 68.266667 0 125.155556 56.888889 125.155556 125.155555 0 68.266667-56.888889 125.155556-125.155556 125.155556-68.266667 0-125.155556-56.888889-125.155555-125.155556z">
  </path>
</svg>