<svg  viewBox="0 0 36 36" xmlns="http://www.w3.org/2000/svg">
  <path d="M27.684 4C30.1823 4 31.5622 6.85869 30.0776 8.80803L29.9719 8.93949L22.2269 18.0791C22.1093 18.2232 22.0346 18.3953 22.0094 18.5766L22 18.714V25C22 25.5523 21.5522 26 21 26C20.4871 26 20.0644 25.614 20.0067 25.1166L20 25V18.714C20 18.0988 20.1891 17.5008 20.547 16.9885L20.689 16.8005L28.4461 7.64637C28.9732 7.02464 28.5737 6.08599 27.7928 6.00554L27.684 6H8.31595C7.50141 6 7.04365 6.91162 7.48768 7.55986L7.55387 7.64651L15.3229 16.8149C15.712 17.292 15.9443 17.8746 15.9911 18.4843L16 18.714V31C16 31.5523 15.5522 32 15 32C14.4871 32 14.0644 31.614 14.0067 31.1166L14 31V18.714C14 18.5293 13.9488 18.3491 13.8592 18.1995L13.785 18.0935L6.02815 8.93963C4.41228 7.03343 5.7008 4.13238 8.14737 4.00439L8.31595 4H27.684Z" />
</svg>
