<svg viewBox="0 0 1024 1024" version="1.1" xmlns="http://www.w3.org/2000/svg">
  <path d="M512 56.888889c250.936889 0 455.111111 204.174222 455.111111 455.111111s-204.174222 455.111111-455.111111 455.111111S56.888889 762.936889 56.888889 512 261.063111 56.888889 512 56.888889z m-3.783111 248.405333c-31.431111 0-56.888889 27.192889-56.888889 60.728889 0 33.564444 25.457778 60.757333 56.888889 60.757333s56.888889-27.192889 56.888889-60.757333c0-33.536-25.457778-60.728889-56.888889-60.728889z m0 176.355556c-23.552 0-42.666667 20.394667-42.666667 45.568v172.373333c0 25.173333 19.114667 45.539556 42.666667 45.539556 23.580444 0 42.666667-20.366222 42.666667-45.511111v-172.401778c0-25.173333-19.086222-45.568-42.666667-45.568z">
  </path>
</svg>