<svg viewBox="0 0 24 23" xmlns="http://www.w3.org/2000/svg">
  <path
    d="M14.7614 0C9.93499 0 6.02273 3.91226 6.02273 8.73863C6.02273 10.7594 6.70975 12.6193 7.85957 14.0997L6.67813 15.2811L4.88728 13.4903C4.79817 13.4012 4.65157 13.4012 4.55958 13.4903L3.41551 14.6343C3.3264 14.7234 3.3264 14.8701 3.41551 14.962L5.20636 16.7529L3.91568 18.0436L2.12484 16.2527C2.03573 16.1636 1.88913 16.1636 1.79714 16.2527L0.65307 17.3968C0.563959 17.4859 0.563959 17.6325 0.65307 17.7245L2.44392 19.5153L0.566833 21.3924C0.477722 21.4815 0.477722 21.6281 0.566833 21.7172L1.78277 22.9332C1.87188 23.0223 2.01848 23.0223 2.10759 22.9332L9.39745 15.6433C10.8807 16.7903 12.7406 17.4773 14.7614 17.4773C19.5877 17.4773 23.5 13.565 23.5 8.73863C23.5 3.91226 19.5877 0 14.7614 0ZM19.3951 13.3724C18.1591 14.6113 16.512 15.2926 14.7614 15.2926C13.0108 15.2926 11.3636 14.6113 10.1276 13.3724C8.88866 12.1364 8.20739 10.4892 8.20739 8.73863C8.20739 6.98803 8.88866 5.34092 10.1276 4.10486C11.3636 2.86593 13.0108 2.18466 14.7614 2.18466C16.512 2.18466 18.1591 2.86593 19.3951 4.10486C20.6341 5.34092 21.3153 6.98803 21.3153 8.73863C21.3153 10.4892 20.6341 12.1364 19.3951 13.3724Z" />
</svg>