<svg viewBox="0 0 1024 1024" version="1.1" xmlns="http://www.w3.org/2000/svg">
  <path d="M866.453333 275.690667H600.618667a29.525333 29.525333 0 1 1 0-59.093334h265.834666a29.525333 29.525333 0 1 1 0 59.093334z m0 147.690666H600.618667a29.525333 29.525333 0 1 1 0-59.093333h265.834666a29.525333 29.525333 0 1 1 0 59.093333z m0 236.309334H600.618667a29.504 29.504 0 0 1-29.546667-29.546667c0-16.32 13.226667-29.525333 29.546667-29.525333h265.834666a29.504 29.504 0 1 1 0 59.093333z m0 147.690666H600.618667a29.504 29.504 0 0 1-29.546667-29.525333c0-16.341333 13.226667-29.546667 29.546667-29.546667h265.834666c16.341333 0 29.546667 13.205333 29.546667 29.546667 0 16.32-13.205333 29.525333-29.546667 29.525333z m-472.597333-324.906666h-177.237333A88.725333 88.725333 0 0 1 128 393.834667v-177.237334A88.725333 88.725333 0 0 1 216.618667 128h177.237333a88.725333 88.725333 0 0 1 88.597333 88.618667v177.237333a88.725333 88.725333 0 0 1-88.597333 88.597333zM216.618667 187.050667c-16.277333 0-29.546667 13.269333-29.546667 29.546666v177.237334c0 16.256 13.269333 29.525333 29.546667 29.525333h177.237333c16.256 0 29.525333-13.269333 29.525333-29.525333v-177.237334c0-16.277333-13.269333-29.546667-29.525333-29.546666h-177.237333zM393.856 896h-177.237333A88.725333 88.725333 0 0 1 128 807.381333v-177.237333a88.725333 88.725333 0 0 1 88.618667-88.597333h177.237333a88.725333 88.725333 0 0 1 88.597333 88.597333v177.237333A88.725333 88.725333 0 0 1 393.856 896z m-177.237333-295.381333c-16.277333 0-29.546667 13.226667-29.546667 29.525333v177.237333c0 16.298667 13.269333 29.546667 29.546667 29.546667h177.237333c16.256 0 29.525333-13.226667 29.525333-29.546667v-177.237333c0-16.298667-13.269333-29.525333-29.525333-29.525333h-177.237333z" p-id="25072">
</path>
</svg>