<svg xmlns="http://www.w3.org/2000/svg"  viewBox="0 0 30 30">
<path fill-rule="evenodd" clip-rule="evenodd" d="M27 15C27 21.6274 21.6274 27 15 27C8.37258 27 3 21.6274 3 15C3 8.37258 8.37258 3 15 3C21.6274 3 27 8.37258 27 15ZM11.045 17.086C11.2923 17.0834 11.5375 17.1293 11.7687 17.2212L14.6062 18.2901L16.3497 17.8014L17.0704 17.6061L17.3558 17.5352L17.4045 17.5265L17.4109 17.5265C17.4542 17.5344 17.4813 17.5426 17.4922 17.5513C17.6667 17.6128 17.9927 17.8221 18.0274 18.2406C18.0582 18.6054 17.8607 18.8647 17.4176 19.1776L17.2187 19.3116L16.9912 19.4543L16.6798 19.6408L15.7884 20.1643L15.6419 20.2516L15.5807 20.2921L15.4679 20.3595L15.3651 20.4166L15.2428 20.4801L15.1031 20.547L14.9483 20.6144C14.6251 20.7478 14.2246 20.8669 13.8267 20.8669C13.6778 20.8669 13.529 20.8434 13.386 20.8087L13.28 20.7807L11.0797 20.1782H11.0566L11.0019 20.1613L10.9218 20.1412L10.8169 20.1191L10.6875 20.096L10.5343 20.0733L10.3577 20.0521L10.1582 20.0335C10.1231 20.0307 10.0871 20.0281 10.0501 20.0256L9.8172 20.0133L9.56269 20.0065L9.37881 20.0062L9.19075 20.0101C9.14196 20.0106 9.0885 20.0104 9.03038 20.009L8.91953 20.0042L8.86823 19.9981L8.76392 19.9808C8.60392 19.9581 8.37601 19.8325 8.33914 19.6692L8.33493 19.6343L8.33301 18.2625C8.33319 18.2594 8.33699 18.254 8.3444 18.2465L8.37747 18.2171L8.46774 18.148L8.60679 18.0489L8.86808 17.87C9.40122 17.5101 10.2459 17.086 11.045 17.086ZM10.2378 9.22266C9.18588 9.22266 8.33301 10.0754 8.33301 11.1274V16.5163C9.12216 16.0314 10.0015 15.7008 10.8738 15.662L11.0425 15.6579L11.1919 15.6604C11.5696 15.6748 11.9401 15.7528 12.2724 15.8851L14.6702 16.7878L15.4653 16.565L16.582 16.2583L16.9327 16.1677L17.05 16.1405L17.165 16.1185L17.191 16.1116L17.2165 16.1069L17.2486 16.1044L17.3247 16.1048L17.6653 16.1215C17.7375 16.1345 17.8068 16.1504 17.8806 16.1729C17.9544 16.1954 18.025 16.221 18.0955 16.254L18.1458 16.2762C18.7927 16.5675 19.3283 17.1695 19.4385 18.0056L19.4509 18.1211C19.4692 18.3381 19.4569 18.5471 19.4161 18.747L19.7616 18.7464C20.8136 18.7464 21.6663 17.8936 21.6663 16.8417V11.1274C21.6663 10.0754 20.8136 9.22266 19.7616 9.22266H10.2378Z"/>
</svg>