<svg viewBox="0 0 1024 1024" version="1.1" xmlns="http://www.w3.org/2000/svg">
  <path d="M773.688889 588.8c-51.2 0-91.022222 39.822222-91.022222 91.022222 0 22.755556 8.533333 45.511111 25.6 62.577778-51.2 51.2-122.311111 82.488889-196.266667 82.488889-76.8 0-145.066667-31.288889-196.266667-82.488889 14.222222-17.066667 25.6-36.977778 25.6-62.577778 0-51.2-39.822222-91.022222-91.022222-91.022222h-11.377778c-2.844444-14.222222-2.844444-25.6-2.844444-39.822222 0-122.311111 79.644444-224.711111 190.577778-261.688889 14.222222 31.288889 45.511111 51.2 82.488889 51.2 36.977778 0 68.266667-22.755556 82.488888-54.044445 113.777778 34.133333 196.266667 139.377778 196.266667 264.533334h42.666667c0-145.066667-96.711111-267.377778-230.4-304.355556-2.844444-48.355556-42.666667-88.177778-91.022222-88.177778-51.2 0-91.022222 39.822222-91.022223 88.177778-128 39.822222-221.866667 162.133333-221.866666 304.355556 0 19.911111 2.844444 36.977778 5.688889 56.888889-25.6 17.066667-39.822222 45.511111-39.822223 76.8 0 51.2 39.822222 91.022222 91.022223 91.022222 11.377778 0 19.911111-2.844444 31.288888-5.688889 56.888889 62.577778 139.377778 99.555556 230.4 99.555556 91.022222 0 173.511111-36.977778 233.244445-99.555556 8.533333 2.844444 19.911111 5.688889 31.288889 5.688889 51.2 0 91.022222-39.822222 91.022222-91.022222 0-51.2-45.511111-93.866667-96.711111-93.866667zM509.155556 199.111111c28.444444 0 51.2 22.755556 51.2 51.2s-22.755556 51.2-51.2 51.2-51.2-22.755556-51.2-51.2 22.755556-51.2 51.2-51.2zM250.311111 728.177778c-28.444444 0-51.2-22.755556-51.2-51.2S221.866667 625.777778 250.311111 625.777778s51.2 22.755556 51.2 51.2c-2.844444 31.288889-22.755556 51.2-51.2 51.2z m526.222222 0c-28.444444 0-51.2-22.755556-51.2-51.2s22.755556-51.2 51.2-51.2 51.2 22.755556 51.2 51.2-22.755556 51.2-51.2 51.2z">
  </path>
</svg>