<svg
  viewBox="0 0 1024 1024"
  version="1.1"
  xmlns="http://www.w3.org/2000/svg"
>
  <path
    d="M512 170.666667C324.266667 170.666667 170.666667 324.266667 170.666667 512s153.6 341.333333 341.333333 341.333333 341.333333-153.6 341.333333-341.333333S699.733333 170.666667 512 170.666667z m0 640c-164.977778 0-298.666667-133.688889-298.666667-298.666667S347.022222 213.333333 512 213.333333 810.666667 347.022222 810.666667 512 676.977778 810.666667 512 810.666667z"
  ></path>
  <path
    d="M628.622222 366.933333l-116.622222 113.777778-116.622222-113.777778-28.444445 28.444445 113.777778 116.622222-113.777778 116.622222 28.444445 28.444445 116.622222-113.777778 116.622222 113.777778 28.444445-28.444445-113.777778-116.622222 113.777778-116.622222-28.444445-28.444445z"
  ></path>
</svg>