<svg viewBox="0 0 1024 1024" version="1.1" xmlns="http://www.w3.org/2000/svg">
  <path d="M512 56.888889c250.936889 0 455.111111 204.174222 455.111111 455.111111s-204.174222 455.111111-455.111111 455.111111S56.888889 762.936889 56.888889 512 261.063111 56.888889 512 56.888889z m-172.373333 282.737778a42.666667 42.666667 0 0 0 0 60.302222L451.612444 512l-112.042666 112.071111a42.666667 42.666667 0 1 0 60.359111 60.302222L512 572.387556l112.071111 112.042666a42.467556 42.467556 0 0 0 60.302222 0 42.666667 42.666667 0 0 0 0-60.359111L572.387556 512l112.042666-112.071111a42.666667 42.666667 0 1 0-60.359111-60.302222L512 451.612444l-112.071111-112.042666a42.666667 42.666667 0 0 0-60.302222 0z">
  </path>
</svg>