<svg viewBox="0 0 1024 1024" version="1.1" xmlns="http://www.w3.org/2000/svg">
  <path d="M196.266667 298.666667h492.088889l264.533333 224.711111v224.711111h-113.777778c-11.377778 36.977778-42.666667 65.422222-85.333333 65.422222s-76.8-28.444444-85.333334-65.422222H483.555556c-11.377778 36.977778-42.666667 65.422222-85.333334 65.422222s-76.8-28.444444-85.333333-65.422222H196.266667v-25.6H96.711111v-42.666667h99.555556v-42.666666H130.844444v-42.666667h65.422223V298.666667z m156.444444 426.666666c0 25.6 19.911111 45.511111 45.511111 45.511111 22.755556 0 45.511111-17.066667 45.511111-42.666666S423.822222 682.666667 398.222222 682.666667c-25.6 0-45.511111 17.066667-45.511111 42.666666z m352.711111 0c0 25.6 19.911111 45.511111 45.511111 45.511111 25.6 0 45.511111-19.911111 45.511111-45.511111 0-25.6-19.911111-45.511111-45.511111-45.511111-25.6 0-45.511111 19.911111-45.511111 45.511111z m130.844445-19.911111h68.266666v-162.133333L671.288889 341.333333H238.933333v364.088889h71.111111c11.377778-36.977778 42.666667-65.422222 85.333334-65.422222s76.8 28.444444 85.333333 65.422222h184.888889c11.377778-36.977778 42.666667-65.422222 85.333333-65.422222s76.8 28.444444 85.333334 65.422222z m-491.918223-195.953778v-27.164444h55.296V455.111111H312.888889v131.811556h31.459555v-51.2H395.377778v-26.254223h-51.029334z m117.902223 25.144889l28.472889 52.337778h37.262222L493.511111 530.488889c8.590222-2.616889 15.274667-6.940444 20.110222-13.027556 4.835556-6.087111 7.281778-13.596444 7.281778-22.528 0-7.566222-1.422222-13.909333-4.266667-19.000889a34.247111 34.247111 0 0 0-11.576888-12.288 45.795556 45.795556 0 0 0-16.213334-6.513777A82.261333 82.261333 0 0 0 470.471111 455.111111H420.124444v131.811556h31.288889v-52.309334h10.808889z m25.116444-46.535111a12.316444 12.316444 0 0 1 2.048 7.424 13.880889 13.880889 0 0 1-7.623111 13.056 27.534222 27.534222 0 0 1-7.452444 2.417778 59.164444 59.164444 0 0 1-7.992889 0.568889h-15.075556v-30.72h16.924445c2.360889 0 4.778667 0.170667 7.253333 0.540444 2.616889 0.369778 4.920889 1.137778 6.912 2.247111a11.662222 11.662222 0 0 1 5.006222 4.465778z m56.263111 98.844445V455.111111h88.632889v27.022222h-57.912889v24.746667h54.727111v25.486222h-54.727111v27.392h61.240889v27.164445h-91.960889zM656.725333 455.111111v131.811556h91.960889v-27.164445h-61.240889v-27.363555h54.727111v-25.514667h-54.727111v-24.746667h57.912889V455.111111h-88.632889z">
  </path>
</svg>