<svg viewBox="0 0 36 36" xmlns="http://www.w3.org/2000/svg">
  <g clipPath="url(#clip0_6456_5182)">
    <path d="M27.79 4.00024C27.89 4.00024 27.97 4.08024 27.97 4.18024V31.1902L20.62 26.2802C19.84 25.7602 18.94 25.4902 18.01 25.4902C17.08 25.4902 16.18 25.7602 15.4 26.2802L8.05003 31.2002V4.18024C8.05003 4.08024 8.13003 4.00024 8.23003 4.00024H27.79M27.79 2.00024H8.21003C7.01003 2.00024 6.03003 2.97024 6.03003 4.18024V32.9202C6.03003 33.5602 6.55003 34.0102 7.12003 34.0102C7.32003 34.0102 7.53003 33.9502 7.72003 33.8202L16.5 27.9502C16.95 27.6502 17.48 27.5002 18 27.5002C18.52 27.5002 19.05 27.6502 19.5 27.9502L28.28 33.8102C28.47 33.9402 28.68 33.9902 28.88 33.9902C29.44 33.9902 29.97 33.5402 29.97 32.9002V4.18024C29.97 2.98024 29 2.00024 27.79 2.00024V2.00024Z"/>
    <path d="M24.5996 11.26H11.5496C10.9996 11.26 10.5496 10.81 10.5496 10.26C10.5496 9.71001 10.9996 9.26001 11.5496 9.26001H24.5996C25.1496 9.26001 25.5996 9.71001 25.5996 10.26C25.5996 10.81 25.1496 11.26 24.5996 11.26Z" />
    <path d="M22.4306 17.7903H13.7306C13.1806 17.7903 12.7306 17.3403 12.7306 16.7903C12.7306 16.2403 13.1806 15.7903 13.7306 15.7903H22.4306C22.9806 15.7903 23.4306 16.2403 23.4306 16.7903C23.4306 17.3403 22.9806 17.7903 22.4306 17.7903Z" />
  </g>
</svg>