<svg viewBox="0 0 48 48" fill="none" xmlns="http://www.w3.org/2000/svg">
  <rect x="0.307692" y="0.307692" width="47.3846" height="47.3846" rx="23.6923" fill="black" />
  <path
    d="M31.5301 23.6199C31.5163 21.2593 32.5859 19.4801 34.7458 18.1682C33.5377 16.4375 31.7101 15.4856 29.301 15.3022C27.0199 15.1222 24.5242 16.6314 23.6104 16.6314C22.6447 16.6314 20.4363 15.3645 18.6987 15.3645C15.1127 15.4199 11.3017 18.2236 11.3017 23.928C11.3017 25.6137 11.6097 27.3548 12.2259 29.1478C13.0497 31.5085 16.0196 37.2925 19.1175 37.199C20.7375 37.161 21.8832 36.0498 23.9912 36.0498C26.0369 36.0498 27.0961 37.199 28.9029 37.199C32.0286 37.154 34.7146 31.8962 35.4969 29.5286C31.3051 27.5521 31.5301 23.7411 31.5301 23.6199V23.6199ZM27.8922 13.0627C29.6471 10.9789 29.4879 9.08204 29.436 8.40015C27.8853 8.49014 26.0923 9.45587 25.0711 10.6431C23.9462 11.9169 23.2851 13.4919 23.427 15.2676C25.1023 15.3956 26.6322 14.5338 27.8922 13.0627V13.0627Z"
    fill="white" />
</svg>