<svg viewBox="0 0 1024 1024" version="1.1" xmlns="http://www.w3.org/2000/svg">
  <path d="M170.666667 483.555556c0-172.515556 140.373333-312.888889 312.888889-312.888889s312.888889 140.373333 312.888888 312.888889c0 86.243556-35.072 164.465778-91.733333 221.127111h-0.028444l-0.028445 0.028444A311.751111 311.751111 0 0 1 483.555556 796.444444c-172.515556 0-312.888889-140.373333-312.888889-312.888888m731.221333 378.112l-137.728-137.699556A367.957333 367.957333 0 0 0 853.333333 483.555556c0-204.231111-165.546667-369.777778-369.777777-369.777778S113.777778 279.324444 113.777778 483.555556s165.546667 369.777778 369.777778 369.777777a368.071111 368.071111 0 0 0 240.384-89.144889l137.728 137.699556a28.359111 28.359111 0 0 0 40.220444 0 28.416 28.416 0 0 0 0-40.220444"></path>
</svg>