<svg viewBox="0 0 1024 1024" version="1.1" xmlns="http://www.w3.org/2000/svg">
  <path d="M512 543.288889c-179.2 0-301.511111 85.333333-341.333333 113.777778v199.111111h682.666666v-199.111111c-39.822222-28.444444-162.133333-113.777778-341.333333-113.777778z m298.666667 270.222222h-597.333334v-133.688889c56.888889-39.822222 162.133333-93.866667 298.666667-93.866666s241.777778 54.044444 298.666667 93.866666v133.688889zM512 509.155556c102.4 0 184.888889-82.488889 184.888889-184.888889S614.4 139.377778 512 139.377778s-184.888889 82.488889-184.888889 184.888889 82.488889 184.888889 184.888889 184.888889z m0-324.266667c76.8 0 136.533333 62.577778 136.533333 136.533333 0 76.8-62.577778 136.533333-136.533333 136.533334-76.8 0-136.533333-62.577778-136.533333-136.533334 0-73.955556 59.733333-136.533333 136.533333-136.533333z">
  </path>
</svg>