<svg viewBox="0 0 1024 1024" version="1.1" xmlns="http://www.w3.org/2000/svg">
  <path d="M338.488889 210.488889h347.022222L861.866667 512l-176.355556 301.511111H335.644444L162.133333 512l176.355556-301.511111z m22.755555 560.355555h301.511112l150.755555-258.844444-150.755555-258.844444H361.244444L210.488889 512l150.755555 258.844444z m51.2-256c0-56.888889 45.511111-102.4 102.4-102.4s102.4 45.511111 102.4 102.4-45.511111 102.4-102.4 102.4-102.4-45.511111-102.4-102.4z m42.666667 0c0 34.133333 25.6 59.733333 59.733333 59.733334 31.288889 0 59.733333-25.6 59.733334-59.733334 0-34.133333-25.6-59.733333-59.733334-59.733333-34.133333 0-59.733333 25.6-59.733333 59.733333z"></path>
</svg>