<svg viewBox="0 0 1024 1024" version="1.1" xmlns="http://www.w3.org/2000/svg">
  <path d="M247.466667 167.822222v688.355556l264.533333-130.844445 264.533333 130.844445V167.822222H247.466667z m486.4 620.088889l-201.955556-102.4-19.911111-8.533333-19.911111 8.533333-201.955556 102.4V210.488889h440.888889v577.422222z"></path>
  <path d="M370.318222 564.366222l251.420445-251.420444 30.151111 30.179555-251.420445 251.420445zM415.288889 395.377778c22.755556 0 39.822222-17.066667 39.822222-39.822222s-17.066667-39.822222-39.822222-39.822223c-22.755556 0-39.822222 17.066667-39.822222 39.822223s17.066667 39.822222 39.822222 39.822222zM597.333333 497.777778c-22.755556 0-39.822222 17.066667-39.822222 39.822222 0 22.755556 17.066667 39.822222 39.822222 39.822222 22.755556 0 39.822222-17.066667 39.822223-39.822222 0-19.911111-19.911111-39.822222-39.822223-39.822222z"></path>
</svg>