<svg viewBox="0 0 1024 1024" version="1.1" xmlns="http://www.w3.org/2000/svg">
  <path d="M870.4 457.955556c5.688889 0 8.533333 0 14.222222 2.844444V201.955556h-739.555555v258.844444h14.222222c36.977778 0 65.422222 28.444444 65.422222 65.422222 0 36.977778-28.444444 65.422222-65.422222 65.422222h-14.222222v250.311112h739.555555v-250.311112h-14.222222c-36.977778 0-65.422222-28.444444-65.422222-65.422222 0-39.822222 31.288889-68.266667 65.422222-68.266666z m-28.444444 167.822222v167.822222H418.133333v-62.577778h-42.666666v62.577778H187.733333V625.777778c45.511111-14.222222 76.8-54.044444 76.8-102.4 0-48.355556-34.133333-91.022222-76.8-102.4V244.622222h187.733334v62.577778h42.666666V244.622222h423.822223v173.511111c-45.511111 11.377778-79.644444 54.044444-79.644445 102.4 0 48.355556 34.133333 91.022222 79.644445 105.244445z m-466.488889-19.911111v51.2h42.666666v-102.4h-42.666666v51.2z m0-125.155556v-102.4h42.666666v102.4h-42.666666z"></path>
</svg>