<svg xmlns="http://www.w3.org/2000/svg" viewBox="0 0 32 32">
    <path fill-rule="evenodd" clip-rule="evenodd" d="M16 28C22.6274 28 28 22.6274 28 16C28 9.37259 22.6274 4 16 4C9.37259 4 4 9.37259 4 16C4 22.6274 9.37259 28 16 28ZM11.3823 15.1416H12.312C12.5535 15.1416 12.7518 15.0869 12.9067 14.9775C13.0617 14.8636 13.1756 14.7041 13.2485 14.499C13.3215 14.2939 13.3579 14.0524 13.3579 13.7744C13.3579 13.5238 13.3237 13.305 13.2554 13.1182C13.187 12.9268 13.0822 12.7764 12.9409 12.667C12.7996 12.5531 12.6219 12.4961 12.4077 12.4961C12.2437 12.4961 12.0887 12.5417 11.9429 12.6328C11.8016 12.724 11.6899 12.8538 11.6079 13.0225C11.5259 13.1865 11.4849 13.3848 11.4849 13.6172H9.55713C9.55713 13.0703 9.68245 12.5941 9.93311 12.1885C10.1838 11.7829 10.521 11.4661 10.9448 11.2383C11.3687 11.0104 11.8381 10.8965 12.353 10.8965C12.9318 10.8965 13.4399 11.0059 13.8774 11.2246C14.3149 11.4388 14.6567 11.7578 14.9028 12.1816C15.1489 12.6009 15.272 13.1204 15.272 13.7402C15.272 14.0592 15.2104 14.3669 15.0874 14.6631C14.9689 14.9593 14.7957 15.2259 14.5679 15.4629C14.4072 15.6301 14.2195 15.7725 14.0047 15.8902C14.2828 16.0047 14.5184 16.1585 14.7114 16.3516C14.9438 16.5794 15.117 16.8506 15.231 17.165C15.3449 17.4749 15.4019 17.8213 15.4019 18.2041C15.4019 18.6689 15.3244 19.0837 15.1694 19.4482C15.0145 19.8083 14.798 20.1159 14.52 20.3711C14.242 20.6217 13.9185 20.8132 13.5493 20.9453C13.1802 21.0729 12.7791 21.1367 12.3462 21.1367C11.9862 21.1367 11.633 21.0798 11.2866 20.9658C10.9448 20.8519 10.6372 20.6764 10.3638 20.4395C10.0903 20.2025 9.87386 19.904 9.71436 19.5439C9.55485 19.1839 9.4751 18.7578 9.4751 18.2656H11.3892C11.3892 18.5117 11.4325 18.7327 11.519 18.9287C11.6056 19.1201 11.7241 19.2705 11.8745 19.3799C12.0295 19.4893 12.2026 19.5439 12.394 19.5439C12.6174 19.5439 12.811 19.487 12.9751 19.373C13.1392 19.2591 13.2645 19.0996 13.3511 18.8945C13.4377 18.6895 13.481 18.4525 13.481 18.1836C13.481 17.8281 13.4354 17.5433 13.3442 17.3291C13.2531 17.1104 13.1209 16.9508 12.9478 16.8506C12.7746 16.7458 12.5649 16.6934 12.3188 16.6934H11.3823V16.2217V15.6475V15.1416ZM22.0181 15.1484V16.8779C22.0181 17.6253 21.9474 18.2679 21.8062 18.8057C21.6649 19.3434 21.4666 19.7855 21.2114 20.1318C20.9562 20.4736 20.6532 20.7266 20.3022 20.8906C19.9513 21.0547 19.564 21.1367 19.1401 21.1367C18.8029 21.1367 18.4862 21.0843 18.1899 20.9795C17.8937 20.8747 17.6248 20.7152 17.3833 20.501C17.1463 20.2822 16.9412 20.0065 16.7681 19.6738C16.5994 19.3366 16.4696 18.9378 16.3784 18.4775C16.2873 18.0127 16.2417 17.4795 16.2417 16.8779V15.1484C16.2417 14.401 16.3123 13.7607 16.4536 13.2275C16.5994 12.6898 16.8 12.25 17.0552 11.9082C17.3104 11.5664 17.6134 11.3158 17.9644 11.1562C18.3198 10.9922 18.7095 10.9102 19.1333 10.9102C19.466 10.9102 19.7804 10.9626 20.0767 11.0674C20.3729 11.1676 20.6395 11.3249 20.8765 11.5391C21.1134 11.7533 21.3162 12.029 21.4849 12.3662C21.658 12.6989 21.7902 13.0977 21.8813 13.5625C21.9725 14.0228 22.0181 14.5514 22.0181 15.1484ZM20.0972 17.1445V14.8682C20.0972 14.5173 20.0812 14.2096 20.0493 13.9453C20.022 13.681 19.9832 13.4577 19.9331 13.2754C19.883 13.0931 19.8169 12.945 19.7349 12.8311C19.6528 12.7171 19.5617 12.6351 19.4614 12.585C19.3612 12.5303 19.2518 12.5029 19.1333 12.5029C18.9829 12.5029 18.8485 12.5439 18.73 12.626C18.6115 12.708 18.509 12.8424 18.4224 13.0293C18.3358 13.2116 18.2697 13.4554 18.2241 13.7607C18.1831 14.0615 18.1626 14.4307 18.1626 14.8682V17.1445C18.1626 17.4954 18.1763 17.8053 18.2036 18.0742C18.2355 18.3431 18.2788 18.5732 18.3335 18.7646C18.3927 18.9515 18.4588 19.1019 18.5317 19.2158C18.6092 19.3298 18.6981 19.4141 18.7983 19.4688C18.9032 19.5189 19.0171 19.5439 19.1401 19.5439C19.286 19.5439 19.4181 19.5029 19.5366 19.4209C19.6597 19.3343 19.7622 19.1976 19.8442 19.0107C19.9263 18.8239 19.9878 18.5778 20.0288 18.2725C20.0744 17.9626 20.0972 17.5866 20.0972 17.1445ZM6.42105 14.2849L6.47237 14.0176C7.38824 9.58337 11.3152 6.25 16.0207 6.25C21.4055 6.25 25.7707 10.6152 25.7707 16C25.7707 21.3848 21.4055 25.75 16.0207 25.75C12.7051 25.75 9.67593 24.0809 7.88632 21.3772L7.71703 21.1124L8.99367 20.3248L9.15219 20.572C10.6692 22.8476 13.2238 24.25 16.0207 24.25C20.577 24.25 24.2707 20.5563 24.2707 16C24.2707 11.4437 20.577 7.75 16.0207 7.75C11.9917 7.75 8.63726 10.6381 7.91475 14.457L7.46863 16.2267C7.39758 16.5086 7.19934 16.7842 6.91174 16.742C6.7854 16.7235 6.66347 16.6728 6.55913 16.5912L6.47792 16.5176L4.92304 14.887L4.85245 14.8012C4.64163 14.5025 4.67572 14.0865 4.94824 13.8267C5.22075 13.5668 5.63787 13.5525 5.92623 13.7773L6.0086 13.8519L6.42105 14.2849Z"/>
</svg>