<svg viewBox="0 0 1024 1024" version="1.1" xmlns="http://www.w3.org/2000/svg">
  <path d="M448 235.093333A64.085333 64.085333 0 0 1 511.573333 170.666667 64.085333 64.085333 0 0 1 576 234.24 64.085333 64.085333 0 0 1 512.426667 298.666667 64.085333 64.085333 0 0 1 448 235.093333M448 512.426667A64.085333 64.085333 0 0 1 511.573333 448 64.085333 64.085333 0 0 1 576 511.573333 64.085333 64.085333 0 0 1 512.426667 576 64.085333 64.085333 0 0 1 448 512.426667M448 789.76A64.085333 64.085333 0 0 1 511.573333 725.333333 64.085333 64.085333 0 0 1 576 788.906667 64.085333 64.085333 0 0 1 512.426667 853.333333 64.085333 64.085333 0 0 1 448 789.76"></path>
</svg>