<svg viewBox="0 0 1024 1024" version="1.1" xmlns="http://www.w3.org/2000/svg">
  <path d="M512 56.888889c251.363556 0 455.111111 203.747556 455.111111 455.111111s-203.747556 455.111111-455.111111 455.111111S56.888889 763.363556 56.888889 512 260.636444 56.888889 512 56.888889z m7.936 561.436444c-31.971556 0-57.912889 27.221333-57.912889 60.757334 0 33.564444 25.941333 60.757333 57.912889 60.757333s57.884444-27.192889 57.884444-60.757333c0-33.564444-25.912889-60.757333-57.884444-60.757334z m0-309.077333c-23.978667 0-43.406222 20.394667-43.406222 45.568v172.373333c0 25.144889 19.427556 45.539556 43.406222 45.539556s43.406222-20.394667 43.406222-45.539556v-172.373333c0-25.173333-19.427556-45.568-43.406222-45.568z">
  </path>
</svg>