<svg viewBox="0 0 1024 1024" version="1.1" xmlns="http://www.w3.org/2000/svg">
  <path d="M878.933333 839.111111l-179.2-179.2c48.355556-56.888889 76.8-128 76.8-207.644444 0-179.2-145.066667-324.266667-324.266666-324.266667-176.355556 0-321.422222 145.066667-321.422223 324.266667 0 179.2 145.066667 324.266667 324.266667 324.266666 82.488889 0 159.288889-31.288889 216.177778-85.333333l179.2 179.2 28.444444-31.288889z m-426.666666-108.088889c-153.6 0-281.6-125.155556-281.6-281.6 0-153.6 125.155556-281.6 281.6-281.6 153.6 0 281.6 125.155556 281.6 281.6s-125.155556 281.6-281.6 281.6z">
  </path>
</svg>