<svg viewBox="0 0 1024 1024" version="1.1" xmlns="http://www.w3.org/2000/svg">
  <path d="M173.511111 164.977778v182.044444h42.666667v-142.222222h611.555555v614.4H216.177778v-116.622222H173.511111v156.444444h696.888889V164.977778H173.511111z m93.866667 238.933333h-113.777778v42.666667h113.777778v-42.666667z m-113.777778 102.4h113.777778v42.666667h-113.777778v-42.666667z m113.777778 96.711111h-113.777778v42.666667h113.777778v-42.666667z m119.466666 93.866667h-42.666666c0-73.955556 42.666667-136.533333 105.244444-162.133333-31.288889-22.755556-51.2-59.733333-51.2-99.555556 0-68.266667 56.888889-125.155556 125.155556-125.155556 68.266667 0 125.155556 56.888889 125.155555 125.155556 0 39.822222-19.911111 76.8-51.2 99.555556 62.577778 28.444444 105.244444 88.177778 105.244445 162.133333h-42.666667c0-73.955556-62.577778-136.533333-136.533333-136.533333-73.955556 0-136.533333 62.577778-136.533334 136.533333z m219.022223-261.688889c0-45.511111-36.977778-82.488889-82.488889-82.488889-45.511111 0-82.488889 36.977778-82.488889 82.488889 0 45.511111 36.977778 82.488889 82.488889 82.488889 45.511111 0 82.488889-36.977778 82.488889-82.488889z">
  </path>
</svg>