<svg viewBox="0 0 1024 1024" version="1.1" xmlns="http://www.w3.org/2000/svg">
  <path d="M512 56.888889c251.363556 0 455.111111 203.747556 455.111111 455.111111s-203.747556 455.111111-455.111111 455.111111S56.888889 763.363556 56.888889 512 260.636444 56.888889 512 56.888889z m0 56.888889C292.067556 113.777778 113.777778 292.067556 113.777778 512s178.289778 398.222222 398.222222 398.222222 398.222222-178.289778 398.222222-398.222222S731.932444 113.777778 512 113.777778z">
  </path>
  <path d="M377.742222 337.806222l2.673778 2.389334L512 471.779556l131.584-131.584a28.444444 28.444444 0 0 1 42.609778 37.546666l-2.389334 2.673778L552.220444 512l131.584 131.584a28.444444 28.444444 0 0 1-37.546666 42.609778l-2.673778-2.389334L512 552.220444l-131.584 131.584a28.444444 28.444444 0 0 1-42.609778-37.546666l2.389334-2.673778L471.779556 512l-131.584-131.584a28.444444 28.444444 0 0 1 34.645333-44.572444l2.901333 1.991111z">
  </path>
</svg>