<svg viewBox="0 0 1024 1024" version="1.1" xmlns="http://www.w3.org/2000/svg">
  <path d="M139.377778 512c0-204.8 167.822222-372.622222 372.622222-372.622222 204.8 0 372.622222 167.822222 369.777778 372.622222 0 204.8-167.822222 372.622222-372.622222 372.622222-68.266667 0-133.688889-19.911111-190.577778-54.044444H193.422222v-125.155556c-34.133333-56.888889-54.044444-122.311111-54.044444-193.422222z m201.955555 281.6c51.2 31.288889 110.933333 48.355556 170.666667 48.355556 182.044444 0 329.955556-147.911111 329.955556-329.955556 0-182.044444-147.911111-329.955556-329.955556-329.955556-182.044444 0-329.955556 147.911111-329.955556 329.955556 0 59.733333 17.066667 119.466667 48.355556 170.666667l8.533333 11.377777v93.866667H329.955556l11.377777 5.688889z m31.288889-267.377778c0 73.955556 62.577778 136.533333 139.377778 136.533334s139.377778-62.577778 139.377778-136.533334h42.666666c0 99.555556-79.644444 179.2-182.044444 179.2-102.4 0-182.044444-79.644444-182.044444-179.2h42.666666z">
  </path>
</svg>