<svg viewBox="0 0 1024 1024" version="1.1" xmlns="http://www.w3.org/2000/svg">
  <path d="M176.355556 358.4v341.333333h256l142.222222 128v-597.333333l-142.222222 128h-256z m486.4 25.6l-31.288889 31.288889 2.844444 2.844444c25.6 31.288889 36.977778 71.111111 36.977778 110.933334 0 42.666667-14.222222 82.488889-39.822222 113.777777l31.288889 31.288889c31.288889-39.822222 51.2-88.177778 51.2-142.222222 0-51.2-17.066667-99.555556-45.511112-136.533333-1.080889-2.161778-1.763556-3.925333-2.332444-5.432889a14.933333 14.933333 0 0 0-3.356444-5.944889z m71.111111-71.111111l31.288889-28.444445c56.888889 62.577778 93.866667 147.911111 93.866666 241.777778s-36.977778 179.2-93.866666 244.622222L733.866667 739.555556c51.2-56.888889 82.488889-130.844444 82.488889-213.333334 0-79.644444-31.288889-153.6-82.488889-213.333333z"></path>
</svg>