<svg viewBox="0 0 1024 1024" version="1.1" xmlns="http://www.w3.org/2000/svg">
  <path d="M867.555556 457.955556c5.688889 0 8.533333 0 14.222222 2.844444V201.955556H415.288889v51.2h-42.666667V201.955556H142.222222v258.844444h14.222222c36.977778 0 65.422222 28.444444 65.422223 65.422222 0 36.977778-28.444444 65.422222-65.422223 65.422222H142.222222v250.311112h230.4v-51.2h42.666667v51.2H881.777778v-250.311112h-14.222222c-36.977778 0-65.422222-28.444444-65.422223-65.422222 0-39.822222 31.288889-68.266667 65.422223-68.266666z m-452.266667 156.444444v51.2h-42.666667v-102.4h42.666667v51.2z m0-193.422222v51.2h-42.666667V369.777778h42.666667v51.2z"></path>
</svg>