<svg  viewBox="0 0 30 30" xmlns="http://www.w3.org/2000/svg">
  <path fillRule="evenodd" clipRule="evenodd" d="M2.33324 13.6367C5.06707 9.33094 9.80526 6.66669 15.0001 6.66669C20.1949 6.66669 24.9331 9.33094 27.6668 13.6364C28.1959 14.4692 28.1959 15.5309 27.6669 16.3634C24.9331 20.6691 20.1949 23.3334 15.0001 23.3334C9.80526 23.3334 5.06707 20.6691 2.3334 16.3636C1.80426 15.5309 1.80426 14.4692 2.33324 13.6367ZM26.26 14.5299C23.8287 10.7007 19.6183 8.33327 15.0001 8.33327C10.3819 8.33327 6.17158 10.7007 3.74015 14.5302C3.55762 14.8174 3.55762 15.1824 3.7403 15.4699C6.17158 19.2991 10.3819 21.6666 15.0001 21.6666C19.6183 21.6666 23.8287 19.2991 26.2601 15.4697C26.4426 15.1824 26.4426 14.8174 26.26 14.5299Z"  />
  <path fillRule="evenodd" clipRule="evenodd" d="M10.833 15C10.833 12.6989 12.6986 10.8333 14.9997 10.8333C17.3007 10.8333 19.1663 12.6989 19.1663 15C19.1663 17.3011 17.3007 19.1666 14.9997 19.1666C12.6986 19.1666 10.833 17.3011 10.833 15ZM17.4998 15.0001C17.4998 13.6195 16.3804 12.5001 14.9998 12.5001C13.6192 12.5001 12.4998 13.6195 12.4998 15.0001C12.4998 16.3807 13.6192 17.5001 14.9998 17.5001C16.3804 17.5001 17.4998 16.3807 17.4998 15.0001Z"  />
</svg>