<svg viewBox="0 0 1024 1024" version="1.1" xmlns="http://www.w3.org/2000/svg">
  <path d="M393.856 482.453333h-177.237333A88.725333 88.725333 0 0 1 128 393.856v-177.237333A88.725333 88.725333 0 0 1 216.618667 128h177.237333a88.725333 88.725333 0 0 1 88.597333 88.618667v177.237333a88.725333 88.725333 0 0 1-88.597333 88.597333z m413.44 0h-177.237333a88.725333 88.725333 0 0 1-88.618667-88.597333v-177.237333A88.725333 88.725333 0 0 1 630.058667 128h177.237333a88.725333 88.725333 0 0 1 88.597333 88.618667v177.237333a88.725333 88.725333 0 0 1-88.597333 88.597333zM216.618667 187.093333c-16.277333 0-29.546667 13.269333-29.546667 29.546667v177.237333c0 16.256 13.269333 29.525333 29.546667 29.525334h177.237333c16.256 0 29.525333-13.269333 29.525333-29.525334v-177.237333c0-16.277333-13.269333-29.546667-29.525333-29.546667h-177.237333z m413.44 0c-16.277333 0-29.546667 13.269333-29.546667 29.546667v177.237333c0 16.256 13.269333 29.525333 29.546667 29.525334h177.237333c16.256 0 29.525333-13.269333 29.525333-29.525334v-177.237333c0-16.277333-13.269333-29.546667-29.525333-29.546667h-177.237333zM393.856 896h-177.237333A88.725333 88.725333 0 0 1 128 807.381333v-177.237333a88.725333 88.725333 0 0 1 88.618667-88.597333h177.237333a88.725333 88.725333 0 0 1 88.597333 88.597333v177.237333A88.725333 88.725333 0 0 1 393.856 896z m413.44 0h-177.237333a88.725333 88.725333 0 0 1-88.618667-88.618667v-177.237333a88.725333 88.725333 0 0 1 88.618667-88.597333h177.237333a88.725333 88.725333 0 0 1 88.597333 88.597333v177.237333A88.725333 88.725333 0 0 1 807.296 896zM216.618667 600.618667c-16.277333 0-29.546667 13.226667-29.546667 29.525333v177.237333c0 16.298667 13.269333 29.546667 29.546667 29.546667h177.237333c16.256 0 29.525333-13.226667 29.525333-29.546667v-177.237333c0-16.298667-13.269333-29.525333-29.525333-29.525333h-177.237333z m413.44 0c-16.277333 0-29.546667 13.226667-29.546667 29.525333v177.237333c0 16.298667 13.269333 29.546667 29.546667 29.546667h177.237333c16.256 0 29.525333-13.226667 29.525333-29.546667v-177.237333c0-16.298667-13.269333-29.525333-29.525333-29.525333h-177.237333z"></path>
</svg>