<svg viewBox="0 0 1024 1024" version="1.1" xmlns="http://www.w3.org/2000/svg">
  <path d="M631.466667 219.022222H196.266667v204.8c0 39.822222 19.911111 73.955556 51.2 93.866667v287.288889h531.911111V517.688889c31.288889-19.911111 51.2-54.044444 51.2-93.866667V219.022222h-199.111111z m102.4 543.288889H290.133333v-227.555555c5.688889 0 14.222222 2.844444 19.911111 2.844444h8.533334c39.822222 0 73.955556-19.911111 93.866666-51.2 19.911111 31.288889 54.044444 51.2 93.866667 51.2h11.377778c39.822222 0 73.955556-19.911111 93.866667-51.2 19.911111 31.288889 54.044444 51.2 93.866666 51.2h8.533334c5.688889 0 14.222222 0 19.911111-2.844444v227.555555z m51.2-338.488889c0 39.822222-31.288889 71.111111-71.111111 71.111111h-8.533334c-22.755556 0-45.511111-11.377778-59.733333-31.288889l-34.133333-51.2-34.133334 51.2c-14.222222 19.911111-36.977778 31.288889-59.733333 31.288889h-11.377778c-22.755556 0-45.511111-11.377778-59.733333-31.288889l-34.133334-51.2-34.133333 51.2c-14.222222 19.911111-34.133333 31.288889-59.733333 31.288889h-8.533334c-39.822222 0-71.111111-31.288889-71.111111-71.111111V261.688889h548.977778v162.133333h-2.844444z"></path>
</svg>