<svg viewBox="0 0 1024 1024" version="1.1" xmlns="http://www.w3.org/2000/svg">
  <path d="M694.044444 301.511111l-51.2-79.644444h-261.688888l-51.2 79.644444H145.066667v497.777778H881.777778V301.511111h-187.733334z m-506.311111 455.111111V344.177778h162.133334l11.377777-19.911111 39.822223-59.733334h216.177777l39.822223 59.733334 11.377777 19.911111H836.266667v412.444444H187.733333zM512 372.622222c-91.022222 0-167.822222 73.955556-167.822222 167.822222 0 91.022222 73.955556 167.822222 167.822222 167.822223 91.022222 0 167.822222-73.955556 167.822222-167.822223 0-93.866667-76.8-167.822222-167.822222-167.822222z m0 290.133334c-68.266667 0-125.155556-56.888889-125.155556-125.155556 0-68.266667 56.888889-125.155556 125.155556-125.155556 68.266667 0 125.155556 56.888889 125.155556 125.155556 0 68.266667-56.888889 125.155556-125.155556 125.155556z m256-210.488889c-14.222222 0-25.6-8.533333-31.288889-19.911111-2.844444-2.844444-2.844444-8.533333-2.844444-14.222223s0-11.377778 2.844444-14.222222c2.844444-8.533333 8.533333-14.222222 17.066667-17.066667 5.688889-2.844444 8.533333-2.844444 14.222222-2.844444s11.377778 0 14.222222 2.844444c8.533333 2.844444 14.222222 8.533333 17.066667 17.066667 2.844444 5.688889 2.844444 8.533333 2.844444 14.222222s0 11.377778-2.844444 14.222223c-5.688889 11.377778-17.066667 19.911111-31.288889 19.911111z">
  </path>
</svg>