<svg viewBox="0 0 1024 1024" version="1.1" xmlns="http://www.w3.org/2000/svg">
  <path d="M651.377778 292.977778V216.177778H119.466667v543.288889h119.466666c8.533333 39.822222 45.511111 71.111111 91.022223 71.111111 42.666667 0 79.644444-31.288889 91.022222-71.111111H625.777778c8.533333 39.822222 45.511111 71.111111 91.022222 71.111111 42.666667 0 79.644444-31.288889 91.022222-71.111111h113.777778v-270.222223l-270.222222-196.266666zM329.955556 787.911111c-28.444444 0-51.2-22.755556-51.2-51.2s22.755556-51.2 51.2-51.2 51.2 22.755556 51.2 51.2c-2.844444 28.444444-25.6 51.2-51.2 51.2z m384 0c-28.444444 0-51.2-22.755556-51.2-51.2s22.755556-51.2 51.2-51.2 51.2 22.755556 51.2 51.2-22.755556 51.2-51.2 51.2z m159.288888-71.111111h-71.111111c-8.533333-39.822222-45.511111-71.111111-91.022222-71.111111-42.666667 0-79.644444 31.288889-91.022222 71.111111h-204.8c-8.533333-39.822222-45.511111-71.111111-91.022222-71.111111-42.666667 0-79.644444 31.288889-91.022223 71.111111H162.133333V258.844444h449.422223v56.888889l264.533333 196.266667v204.8h-2.844445z"></path>
</svg>