<svg viewBox="0 0 1024 1024" version="1.1" xmlns="http://www.w3.org/2000/svg">
  <path d="M142.222222 247.466667h739.555556v529.066666H142.222222V247.466667z m696.888889 42.666666H187.733333v233.244445l179.2-102.4 207.644445 142.222222 105.244444-71.111111 159.288889 125.155555V290.133333z m-654.222222 284.444445v159.288889h651.377778v-59.733334l-159.288889-128-105.244445 71.111111-210.488889-145.066666-176.355555 102.4z m463.644444-170.666667c0 45.511111-36.977778 79.644444-79.644444 79.644445-42.666667 0-79.644444-34.133333-79.644445-79.644445 0-45.511111 34.133333-79.644444 79.644445-79.644444 45.511111 0 79.644444 34.133333 79.644444 79.644444z m-45.511111 0c0-17.066667-14.222222-34.133333-34.133333-34.133333s-34.133333 17.066667-34.133333 34.133333 17.066667 34.133333 34.133333 34.133333 34.133333-17.066667 34.133333-34.133333z">
  </path>
</svg>