<svg viewBox="0 0 1024 1024" version="1.1" xmlns="http://www.w3.org/2000/svg">
  <path d="M640 312.888889h187.733333L881.777778 853.333333H139.377778l56.888889-540.444444h187.733333v-14.222222C384 227.555556 440.888889 170.666667 512 170.666667s128 56.888889 128 128v14.222222zM512 213.333333c-48.355556 0-85.333333 36.977778-85.333333 85.333334v14.222222h170.666666v-14.222222c0-48.355556-36.977778-85.333333-85.333333-85.333334z m-128 142.222223H236.088889l-48.355556 455.111111h648.533334l-48.355556-455.111111h-147.911111v113.777777H597.333333v-113.777777h-170.666666v113.777777h-42.666667v-113.777777z m110.933333 159.288888h42.666667v73.955556h73.955556v42.666667h-73.955556v76.8h-42.666667v-76.8h-76.8v-42.666667h76.8v-73.955556z" >
  </path>
</svg>