<svg viewBox="0 0 25 24" xmlns="http://www.w3.org/2000/svg">
  <g clip-path="url(#clip0_2039_6982)">
    <path
      d="M19.2031 0.000488281H5.79688C4.96953 0.000488281 4.29688 0.673145 4.29688 1.50049V22.5005C4.29688 23.3278 4.96953 24.0005 5.79688 24.0005H19.2031C20.0305 24.0005 20.7031 23.3278 20.7031 22.5005V1.50049C20.7031 0.673145 20.0305 0.000488281 19.2031 0.000488281ZM19.2031 21.7505C19.2031 22.163 18.8656 22.5005 18.4531 22.5005H6.54688C6.13437 22.5005 5.79688 22.163 5.79688 21.7505V18.1364H19.2031V21.7505ZM5.79688 16.6364V2.25049C5.79688 1.83799 6.13437 1.50049 6.54688 1.50049H18.4531C18.8656 1.50049 19.2031 1.83799 19.2031 2.25049V16.6364H5.79688Z" />
    <path
      d="M11.2109 20.377C11.2109 20.7188 11.3467 21.0467 11.5885 21.2885C11.8302 21.5302 12.1581 21.666 12.5 21.666C12.8419 21.666 13.1698 21.5302 13.4115 21.2885C13.6533 21.0467 13.7891 20.7188 13.7891 20.377C13.7891 20.0351 13.6533 19.7072 13.4115 19.4654C13.1698 19.2237 12.8419 19.0879 12.5 19.0879C12.1581 19.0879 11.8302 19.2237 11.5885 19.4654C11.3467 19.7072 11.2109 20.0351 11.2109 20.377Z" />
  </g>
</svg>