<svg viewBox="0 0 1024 1024" version="1.1" xmlns="http://www.w3.org/2000/svg">
  <path d="M315.076923 39.384615m39.384615 0l0 0q39.384615 0 39.384616 39.384616l0 866.461538q0 39.384615-39.384616 39.384616l0 0q-39.384615 0-39.384615-39.384616l0-866.461538q0-39.384615 39.384615-39.384616Z"></path>
  <path d="M69.212921 308.319591m27.849128-27.849128l222.793029-222.793029q27.849129-27.849129 55.698257 0l0 0q27.849129 27.849129 0 55.698257l-222.793029 222.793029q-27.849129 27.849129-55.698257 0l0 0q-27.849129-27.849129 0-55.698257Z"></path>
  <path d="M708.923077 984.615385m-39.384615 0l0 0q-39.384615 0-39.384616-39.384616l0-866.461538q0-39.384615 39.384616-39.384616l0 0q39.384615 0 39.384615 39.384616l0 866.461538q0 39.384615-39.384615 39.384616Z"></path>
  <path d="M954.787079 715.680409m-27.849128 27.849128l-222.793029 222.793029q-27.849129 27.849129-55.698257 0l0 0q-27.849129-27.849129 0-55.698257l222.793029-222.793029q27.849129-27.849129 55.698257 0l0 0q27.849129 27.849129 0 55.698257Z"></path>
</svg>