<svg viewBox="0 0 1024 1024" version="1.1" xmlns="http://www.w3.org/2000/svg">
  <path d="M714.268444 366.364444H309.703111c-13.937778 0-25.258667-12.885333-25.258667-28.728888 0-15.815111 11.320889-28.700444 25.258667-28.700445h404.565333c13.966222 0 25.315556 12.885333 25.315556 28.728889 0 15.815111-11.349333 28.672-25.315556 28.672M822.044444 600.462222c-15.928889 0-28.728889 12.8-28.728888 28.700445l0.028444 156.529777a16.213333 16.213333 0 0 1-16.128 16.128l-540.302222 0.369778a16.099556 16.099556 0 0 1-16.156445-16.014222l-0.199111-153.827556a28.672 28.672 0 0 0-28.700444-28.615111h-0.056889a28.672 28.672 0 0 0-28.672 28.728889l0.227555 153.742222a73.500444 73.500444 0 0 0 73.557334 73.329778l540.387555-0.312889a73.728 73.728 0 0 0 73.500445-73.557333l-0.056889-156.501333c0-15.872-12.856889-28.672-28.728889-28.672"></path>
  <path d="M800.483556 508.444444c-13.027556 7.111111-29.240889 10.752-48.071112 10.865778a99.754667 99.754667 0 0 1-85.504-47.815111 46.165333 46.165333 0 0 0-7.651555-12.088889c-4.750222-5.290667-13.368889-11.576889-27.562667-11.576889-11.434667 0-21.788444 4.664889-27.648 11.832889a48.014222 48.014222 0 0 0-7.509333 11.861334 99.84 99.84 0 0 1-84.280889 47.872 99.925333 99.925333 0 0 1-84.878222-47.985778 46.876444 46.876444 0 0 0-6.798222-10.865778c-13.482667-16.071111-43.719111-15.246222-55.466667-1.223111a45.624889 45.624889 0 0 0-8.078222 12.743111 100.408889 100.408889 0 0 1-85.276445 47.644444c-18.545778 0-34.417778-3.470222-47.217778-10.296888h-0.056888a100.266667 100.266667 0 0 1-47.786667-121.457778 21.902222 21.902222 0 0 0 0.682667-2.503111l71.281777-168.334223c1.450667-4.323556 5.888-17.408 28.046223-17.408h472.604444c9.102222 0.540444 24.803556 2.133333 30.378667 18.488889l66.730666 166.030223c0.284444 1.223111 0.568889 2.360889 0.881778 3.299555a100.352 100.352 0 0 1-46.819555 120.917333m102.115555-136.760888a26.368 26.368 0 0 0-1.706667-6.001778l-67.328-167.367111c-11.662222-34.702222-45.141333-55.978667-84.309333-56.092445H276.792889c-39.736889 0-70.542222 21.105778-81.720889 54.414222l-72.362667 170.808889a30.151111 30.151111 0 0 0-1.052444 4.039111 157.667556 157.667556 0 0 0 75.832889 188.501334h0.056889c21.219556 11.349333 46.165333 17.066667 74.268444 17.066666a157.411556 157.411556 0 0 0 120.519111-56.206222 157.326222 157.326222 0 0 0 119.950222 55.921778 156.871111 156.871111 0 0 0 119.324445-56.064 157.013333 157.013333 0 0 0 120.832 55.978667c28.643556-0.113778 54.101333-6.144 75.52-17.92A157.724444 157.724444 0 0 0 910.222222 420.181333a153.884444 153.884444 0 0 0-7.623111-48.469333"></path>
</svg>